<svg viewBox="0 0 134 36" fill="none" xmlns="http://www.w3.org/2000/svg"><path d="M54.844 6.696c-.106 1.12-.489 4.141-.891 7.037-.213 1.497-.38 3.147-.529 4.487h-.17c-.17-1.34-.36-3.022-.531-4.516-.338-2.896-.7-5.887-.805-7.007h-6.676c.867 3.144 3.03 12.83 3.71 16.007 0 3.643-.044 6.416-.106 7.38a84.192 84.192 0 0 1 4.09-.094c1.27 0 3.01.032 4.111.094-.02-.964-.084-3.675-.106-7.257.68-2.927 2.799-12.83 3.69-16.13h-5.787v-.001zM42.887 18.404c.022-5.044.042-10.027.084-11.708h-6.91c.086 2.242.086 6.539.086 11.679 0 5.14-.064 9.838-.087 11.676h10.6c0-1.462-.021-2.928-.021-4.423s.022-2.895.022-4.39c-1.294.061-2.65.093-3.774.126v-2.96zM28.664 6.696c.064 1.744.128 4.672.148 7.411.022 1.278.064 2.802.148 4.484h-.064a50.391 50.391 0 0 0-.867-3.924c-.85-2.865-2.163-6.664-2.437-7.971h-7.123c.064 3.206.042 6.726.042 11.679s-.022 8.502-.042 11.676h5.722c-.042-.964-.042-3.174-.084-6.415a177.794 177.794 0 0 0-.19-5.542l.062-.032c.296 1.62.657 3.208 1.123 4.797.934 2.491 1.971 5.293 2.502 7.192h6.635c-.043-2.957-.043-6.507-.043-11.708 0-5.201.023-9.622.085-11.647h-5.617z" fill="#019EFF"/><path d="M67.337 24.987c-1.136 0-1.5-.592-1.5-1.968 0-.187 0-.407.02-.627-.428.033-1.007.065-1.65.065-1.329 0-2.744-.158-3.73-.252a29.413 29.413 0 0 0-.064 1.878c0 4.53 1.586 6.437 7.437 6.437 5.533 0 7.397-2.343 7.397-7.281s-1.309-6.66-5.533-7.63c-2.57-.594-2.891-1.375-2.891-2.562 0-.845.363-1.343 1.328-1.343 1.243 0 1.564.624 1.564 1.748 0 .159 0 .378-.02.627a25.771 25.771 0 0 1 1.823-.062c1.156 0 2.614.094 3.45.217.023-.562.043-1.093.043-1.594 0-4.376-1.458-6.44-7.289-6.44-5.164 0-7.33 2.252-7.33 7.284 0 4.188.92 6.533 5.658 7.47 2.316.469 2.724 1.222 2.724 2.534 0 .97-.343 1.5-1.437 1.5v-.001zm51.858-2.26a17.4 17.4 0 0 0-1.569.065c.002 2.938.012 5.254.042 7.29h-6.711c-.396-1.413-1.077-3.324-1.786-5.236-.143.047-.283.097-.424.143-.437.148-.872.301-1.305.456.023 2.277.03 3.86.065 4.637h-5.787l.014-2.466-1.855.735c.005.584.01 1.157.018 1.731h-4.434c-7.94 3.078-16.279 5.971-24.81 5.917-5.57-.034-10.512-1.763-11.45-7.274a.123.123 0 0 1 .086-.136.121.121 0 0 1 .143.077c.067.18.139.357.218.53 1.736 3.86 6.313 5.254 11.013 5.283 9.458.059 18.85-3.685 27.606-7.128 5.562-2.185 14.374-5.905 20.07-6.13 1.761-.068 3.589.091 5.354.666-.689.277-1.524.804-1.578 1.761-.052.95.491 1.683 1.334 2.035 1.877.78 3.922-.271 6.033.36.072.022.143.01.205-.034a.223.223 0 0 0 .101-.183c.089-1.675-.279-4.997-1.659-6.418-.837-.86-1.919-1.122-2.697-.686-.758.424-.965 1.325-.921 2.163a14.48 14.48 0 0 0-3.302-1.373c-1.657-1.283-2.062-3.251-2.062-6.031 0-5.032 2.163-7.284 7.33-7.284 5.829 0 7.289 2.064 7.289 6.44 0 .5-.022 1.03-.045 1.593-.834-.123-2.292-.217-3.45-.217-.728 0-1.393.03-1.823.062.022-.249.022-.468.022-.627 0-1.124-.321-1.748-1.566-1.748-.963 0-1.329.498-1.329 1.344 0 1.186.324 1.968 2.895 2.562 4.224.97 5.53 2.876 5.53 7.63 0 4.753-1.864 7.28-7.395 7.28-5.851 0-7.439-1.907-7.439-6.437 0-.252.012-.777.027-1.354l.002.003zM93.108 26.2c.017-2.249.017-4.74.017-7.84 0-4.97 0-8.409-.064-11.722h6.836c-.041 3.313-.041 6.719-.041 11.692 0 1.95 0 3.66.002 5.222-2.248.89-4.493 1.783-6.75 2.648zm8.649-3.391c.003-1.354.005-2.825.005-4.45 0-4.97.022-8.501-.042-11.72h7.202c.279 1.312 1.608 5.125 2.465 8 .321 1.19.623 2.534.879 3.94h.064a133.285 133.285 0 0 1-.15-4.502c-.023-2.75-.087-5.69-.151-7.439h5.68c-.064 2.03-.084 6.719-.084 11.692v.65c-5.024-.148-11.114 1.99-15.869 3.829h.001zm-17.894-3.322c-.385 0-.706 0-.985-.032-.02-2.158-.02-4.501-.02-6.94.427-.03.876-.03 1.114-.03 1.329 0 1.842.624 1.842 3.5 0 2.875-.472 3.501-1.95 3.501v.001zM76.533 6.64c.064 3.313.086 6.75.086 11.721 0 4.97-.022 8.317-.087 11.724h4.762c.605-.15 1.21-.311 1.813-.482a101.007 101.007 0 0 1-.143-4.427c.77.032 1.544.032 1.929.032 5.488 0 6.987-2.501 6.987-9.63 0-7.127-2.1-8.938-6.086-8.938h-9.262z" fill="#4A5878"/><path d="M17.163 17.847c0-2.888-.31-5.119-.922-6.815.354-.503 2.056-3.248-.423-6.532 0 0-.482 1.64-2.46 2.843-1.282-.742-2.884-1.047-4.8-1.047-1.915 0-3.506.306-4.767 1.052C1.805 6.144 1.32 4.5 1.32 4.5-1.423 8.137.96 11.114.96 11.114c-.573 1.685-.856 3.891-.856 6.733 0 8.996 2.406 12.608 8.454 12.608 6.049 0 8.605-3.611 8.605-12.608zM8.58 23.2c-1.214 0-1.79-1.276-1.79-5.386 0-3.86.597-4.95 1.79-4.95 1.192 0 1.768 1.12 1.768 4.95 0 4.078-.554 5.386-1.768 5.386z" fill="#019EFF"/></svg>