<svg viewBox="0 0 59 40" fill="none" xmlns="http://www.w3.org/2000/svg"><g clip-path="url(#a)"><path d="M5.567 35.575c-.911 0-1.203-.476-1.203-1.576 0-.15 0-.325.017-.5-.344.024-.807.05-1.323.05-1.065 0-2.2-.126-2.99-.2a23.187 23.187 0 0 0-.05 1.5C.017 38.475 1.287 40 5.978 40c4.433 0 5.928-1.875 5.928-5.826 0-3.951-1.048-5.327-4.433-6.101-2.062-.475-2.32-1.1-2.32-2.05 0-.676.293-1.076 1.066-1.076.996 0 1.254.5 1.254 1.4 0 .125 0 .3-.017.5.344-.024.876-.05 1.46-.05.928 0 2.097.075 2.766.176.018-.45.034-.875.034-1.275 0-3.501-1.168-5.152-5.84-5.152-4.142 0-5.877 1.8-5.877 5.827 0 3.35.739 5.226 4.536 5.976 1.855.375 2.182.975 2.182 2.025 0 .776-.275 1.2-1.151 1.2zm47.213-18.22c-.121 1.086-.57 2.417-1.284 3.28.453-.059.943-.089 1.473-.089 4.673 0 5.842 1.65 5.842 5.152 0 .4-.017.825-.034 1.275-.67-.1-1.84-.175-2.767-.175-.584 0-1.116.025-1.46.05.017-.2.017-.376.017-.5 0-.901-.258-1.401-1.254-1.401-.773 0-1.066.4-1.066 1.075 0 .95.258 1.576 2.32 2.05 3.385.775 4.433 2.3 4.433 6.102 0 3.8-1.495 5.826-5.928 5.826-4.69 0-5.962-1.525-5.962-5.15 0-.476.017-.976.052-1.501.79.075 1.924.2 2.989.2.516 0 .98-.026 1.323-.05-.017.175-.017.35-.017.5 0 1.1.292 1.576 1.203 1.576.91 0 1.15-.425 1.15-1.2 0-1.05-.326-1.651-2.181-2.026-3.797-.75-4.536-2.626-4.536-5.976 0-1.38.204-2.5.64-3.374-.585.2-1.201.366-1.835.505a760.605 760.605 0 0 0-.025 6.745c0 4.176 0 7.026.035 9.402H40.53c-.43-1.526-1.272-3.776-2.028-5.777a37.44 37.44 0 0 1-.91-3.85l-.051.025c.086 1.575.12 2.975.154 4.45.035 2.601.035 4.376.069 5.152h-4.639c.017-2.55.034-5.377.034-9.377 0-2.825.01-5.07-.004-7.055-.504-.108-1.007-.218-1.51-.329-.015 2.078-.015 4.364-.015 7.359 0 3.975 0 6.701.035 9.402h-5.481c.051-2.676.051-5.402.051-9.377 0-3.536 0-6.102-.036-8.491-1.083-.164-2.095-.256-2.978-.219 1.33.876 2.018 2.76 2.018 6.485 0 5.7-1.203 7.7-5.601 7.7-.31 0-.928 0-1.547-.024.017 1.5.07 2.826.138 3.926h-5.292c.052-2.726.07-5.377.07-9.377 0-4-.018-6.727-.07-9.377h5.058c-.785 1.388-.775 3.86-.064 5.413-.447-.155-.937-.197-1.389-.052-.949.306-1.222 1.476-.655 2.557.818 1.561 3.744 2.743 5.006 3.023-.074-1.963 1.337-3.364 1.202-5.128-.057-.757-.471-1.37-1.172-1.573-.91-.264-1.591.356-1.975.904-.32-1.535-.31-3.269.727-4.333 1.682-1.728 4.824-1.28 7.046-.903 1.082.183 2.157.408 3.23.64.539.117 1.077.236 1.616.354 1.802.395 3.603.777 5.438.98 2.387.258 5.09.2 7.526-.2 1.67-.277 3.43-.736 4.863-1.578 1.546-.91 2.551-2.23 3.15-3.706.053-.132.252-.081.236.06zM41.472 24.05c-.558.024-1.1.033-1.615.029.343 1.063.716 2.212 1.016 3.218.258.95.499 2.026.705 3.15h.051c-.068-1.35-.103-2.575-.12-3.6-.007-.934-.02-1.894-.038-2.797z" fill="#4A5878"/><path d="M18.872 10.68c0-2.311-.246-4.096-.735-5.454.282-.402 1.64-2.598-.338-5.226 0 0-.384 1.312-1.963 2.275-1.023-.594-2.3-.838-3.828-.838-1.529 0-2.798.245-3.804.842C6.62 1.316 6.234 0 6.234 0c-2.19 2.91-.289 5.292-.289 5.292h.001c-.457 1.349-.684 3.113-.684 5.387 0 7.199 1.92 10.088 6.746 10.088 4.825 0 6.864-2.889 6.864-10.088zm-6.847 4.283c-.969 0-1.428-1.02-1.428-4.309 0-3.089.476-3.96 1.428-3.96.951 0 1.41.896 1.41 3.96 0 3.263-.442 4.31-1.41 4.31zm16.09-13.202c.05 1.395.102 3.737.119 5.929.017 1.021.05 2.242.119 3.587h-.051a39.446 39.446 0 0 0-.697-3.138c-.68-2.293-1.733-5.331-1.954-6.378h-5.708c.05 2.566.033 5.38.033 9.342 0 3.267-.011 5.748-.024 7.936 1.247-.647 2.81-.83 4.541-.753-.007-.815-.016-1.811-.031-2.973a138.52 138.52 0 0 0-.153-4.434l.051-.025c.238 1.295.527 2.566.9 3.836.47 1.25.972 2.597 1.385 3.803 1.75.243 3.597.65 5.412 1.047l.517.113c-.024-2.21-.024-4.868-.024-8.575 0-3.96.017-7.698.068-9.317h-4.503zm11.4 9.366c.018-4.035.035-8.02.069-9.366h-5.54c.069 1.794.069 5.231.069 9.342 0 3.609-.042 7.136-.063 8.861 1.714.348 3.217.583 4.89.647 1.061.04 2.32.02 3.6-.098-.003-1.124-.017-2.537-.017-3.607 0-1.145.017-2.317.017-3.512-1.036.05-2.124.075-3.024.1v-2.367zm9.583-9.366c-.085.897-.39 3.313-.713 5.63-.17 1.196-.306 2.516-.425 3.587h-.136c-.136-1.07-.289-2.417-.425-3.612-.272-2.317-.56-4.708-.645-5.605h-5.352c.696 2.516 2.43 10.263 2.973 12.804 0 2.71-.03 4.816-.075 5.72 1.471-.251 2.866-.655 3.915-1.272 1.485-.873 2.576-2.612 2.565-4.349.544-2.341 2.243-10.263 2.957-12.903h-4.64.001z" fill="#019EFF"/></g><defs><clipPath id="a"><path fill="#fff" d="M0 0h59v40H0z"/></clipPath></defs></svg>